<?xml version="1.0" encoding="UTF-8" standalone="no"?>
<!-- Created with Inkscape (http://www.inkscape.org/) -->

<svg
   width="12mm"
   height="7mm"
   viewBox="0 0 12 7"
   version="1.1"
   id="svg1"
   xml:space="preserve"
   inkscape:version="1.3 (0e150ed6c4, 2023-07-21)"
   sodipodi:docname="clockodial.svg"
   xmlns:inkscape="http://www.inkscape.org/namespaces/inkscape"
   xmlns:sodipodi="http://sodipodi.sourceforge.net/DTD/sodipodi-0.dtd"
   xmlns="http://www.w3.org/2000/svg"
   xmlns:svg="http://www.w3.org/2000/svg"><sodipodi:namedview
     id="namedview1"
     pagecolor="#ffffff"
     bordercolor="#666666"
     borderopacity="1.0"
     inkscape:showpageshadow="2"
     inkscape:pageopacity="0.0"
     inkscape:pagecheckerboard="0"
     inkscape:deskcolor="#d1d1d1"
     inkscape:document-units="mm"
     inkscape:zoom="25.941639"
     inkscape:cx="25.229709"
     inkscape:cy="11.410227"
     inkscape:window-width="3840"
     inkscape:window-height="2066"
     inkscape:window-x="3829"
     inkscape:window-y="-11"
     inkscape:window-maximized="1"
     inkscape:current-layer="layer1" /><defs
     id="defs1"><inkscape:path-effect
       effect="bspline"
       id="path-effect17"
       is_visible="true"
       lpeversion="1.3"
       weight="33.333333"
       steps="2"
       helper_size="0"
       apply_no_weight="true"
       apply_with_weight="true"
       only_selected="false"
       uniform="false" /><inkscape:path-effect
       effect="bspline"
       id="path-effect16"
       is_visible="true"
       lpeversion="1.3"
       weight="33.333333"
       steps="2"
       helper_size="0"
       apply_no_weight="true"
       apply_with_weight="true"
       only_selected="false"
       uniform="false" /><inkscape:path-effect
       effect="bspline"
       id="path-effect15"
       is_visible="true"
       lpeversion="1.3"
       weight="33.333333"
       steps="2"
       helper_size="0"
       apply_no_weight="true"
       apply_with_weight="true"
       only_selected="false"
       uniform="false" /><inkscape:path-effect
       effect="bspline"
       id="path-effect14"
       is_visible="true"
       lpeversion="1.3"
       weight="33.333333"
       steps="2"
       helper_size="0"
       apply_no_weight="true"
       apply_with_weight="true"
       only_selected="false"
       uniform="false" /><inkscape:path-effect
       effect="bspline"
       id="path-effect13"
       is_visible="true"
       lpeversion="1.3"
       weight="33.333333"
       steps="2"
       helper_size="0"
       apply_no_weight="true"
       apply_with_weight="true"
       only_selected="false"
       uniform="false" /><inkscape:path-effect
       effect="bspline"
       id="path-effect12"
       is_visible="true"
       lpeversion="1.3"
       weight="33.333333"
       steps="2"
       helper_size="0"
       apply_no_weight="true"
       apply_with_weight="true"
       only_selected="false"
       uniform="false" /><inkscape:path-effect
       effect="bspline"
       id="path-effect11"
       is_visible="true"
       lpeversion="1.3"
       weight="33.333333"
       steps="2"
       helper_size="0"
       apply_no_weight="true"
       apply_with_weight="true"
       only_selected="false"
       uniform="false" /><inkscape:path-effect
       effect="bspline"
       id="path-effect10"
       is_visible="true"
       lpeversion="1.3"
       weight="33.333333"
       steps="2"
       helper_size="0"
       apply_no_weight="true"
       apply_with_weight="true"
       only_selected="false"
       uniform="false" /><inkscape:path-effect
       effect="bspline"
       id="path-effect9"
       is_visible="true"
       lpeversion="1.3"
       weight="33.333333"
       steps="2"
       helper_size="0"
       apply_no_weight="true"
       apply_with_weight="true"
       only_selected="false"
       uniform="false" /><inkscape:path-effect
       effect="bspline"
       id="path-effect8"
       is_visible="true"
       lpeversion="1.3"
       weight="33.333333"
       steps="2"
       helper_size="0"
       apply_no_weight="true"
       apply_with_weight="true"
       only_selected="false"
       uniform="false" /><inkscape:path-effect
       effect="bspline"
       id="path-effect7"
       is_visible="true"
       lpeversion="1.3"
       weight="33.333333"
       steps="2"
       helper_size="0"
       apply_no_weight="true"
       apply_with_weight="true"
       only_selected="false"
       uniform="false" /><inkscape:path-effect
       effect="bspline"
       id="path-effect6"
       is_visible="true"
       lpeversion="1.3"
       weight="33.333333"
       steps="2"
       helper_size="0"
       apply_no_weight="true"
       apply_with_weight="true"
       only_selected="false"
       uniform="false" /><inkscape:path-effect
       effect="bspline"
       id="path-effect5"
       is_visible="true"
       lpeversion="1.3"
       weight="33.333333"
       steps="2"
       helper_size="0"
       apply_no_weight="true"
       apply_with_weight="true"
       only_selected="false"
       uniform="false" /><inkscape:path-effect
       effect="bspline"
       id="path-effect4"
       is_visible="true"
       lpeversion="1.3"
       weight="33.333333"
       steps="2"
       helper_size="0"
       apply_no_weight="true"
       apply_with_weight="true"
       only_selected="false"
       uniform="false" /><inkscape:path-effect
       effect="bspline"
       id="path-effect3"
       is_visible="true"
       lpeversion="1.3"
       weight="33.333333"
       steps="2"
       helper_size="0"
       apply_no_weight="true"
       apply_with_weight="true"
       only_selected="false"
       uniform="false" /><inkscape:path-effect
       effect="bspline"
       id="path-effect2"
       is_visible="true"
       lpeversion="1.3"
       weight="33.333333"
       steps="2"
       helper_size="0"
       apply_no_weight="true"
       apply_with_weight="true"
       only_selected="false"
       uniform="false" /><inkscape:path-effect
       effect="bspline"
       id="path-effect1"
       is_visible="true"
       lpeversion="1.3"
       weight="33.333333"
       steps="2"
       helper_size="0"
       apply_no_weight="true"
       apply_with_weight="true"
       only_selected="false"
       uniform="false" /><inkscape:path-effect
       effect="bspline"
       id="path-effect11-6"
       is_visible="true"
       lpeversion="1.3"
       weight="33.333333"
       steps="2"
       helper_size="0"
       apply_no_weight="true"
       apply_with_weight="true"
       only_selected="false"
       uniform="false" /></defs><g
     inkscape:label="Layer 1"
     inkscape:groupmode="layer"
     id="layer1"><path
       style="color:#000000;fill:#000000;-inkscape-stroke:none"
       d="m 7.8105469,0.40820313 c -0.085185,0.0773608 -0.126532,0.17970256 -0.1445313,0.27539062 -0.00932,0.0495553 -0.00786,0.0948358 -0.00977,0.14257813 C 6.093565,0.81917582 4.5281637,0.81209386 3.4804688,0.80859375 2.4009221,0.80498723 1.8425528,0.79992738 1.3789062,0.97265625 0.91525897,1.1453854 0.56568417,1.5113904 0.41796875,2.1035156 0.27025317,2.6956415 0.30335277,3.5107071 0.5625,4.2167969 c 0.25914744,0.7060903 0.7512879,1.2954499 1.4902344,1.6347656 0.7307548,0.3355543 1.6783744,0.4214226 2.6152343,0.5117187 0.010504,0.00101 0.018795,0.00485 0.029297,0.00586 L 4.7109375,6.234375 4.75,6.1132812 C 4.0841013,5.8993283 3.4204187,5.6837766 2.9394531,5.4472656 2.4584869,5.2107544 2.1560067,4.9545085 1.921875,4.6367187 1.8048091,4.4778239 1.7088402,4.3066684 1.6660156,4.1425781 1.623191,3.9784878 1.6292537,3.8252904 1.7089844,3.6679688 1.8684463,3.3533242 2.37241,3.0079833 3.0976563,2.9941406 3.8229025,2.9802979 4.8080086,3.3045339 5.7070312,3.3242188 6.6060539,3.3439036 7.3585753,3.0561505 8.2675781,3.0703125 c 0.9090023,0.014162 2.0191879,0.3263593 2.6367189,0.4570313 0.308765,0.065336 0.492197,0.091376 0.640625,0.058594 0.07421,-0.016391 0.141505,-0.056962 0.185547,-0.1113281 0.04404,-0.054366 0.06437,-0.1136984 0.07813,-0.1699219 0.055,-0.2248941 0.05798,-0.5604773 -0.08203,-0.8339844 C 11.586547,2.197197 11.310859,2.0452929 10.847656,1.8847656 10.384454,1.7242384 9.7160278,1.5409775 9.3261719,1.2773437 8.936316,1.01371 8.7920816,0.64880665 8.5429688,0.43359375 8.293855,0.21838006 7.9809152,0.25348342 7.8105469,0.40820313 Z m 0.1777343,0.19531249 c 0.065225,-0.0592341 0.2236995,-0.10452319 0.3808594,0.03125 0.1571609,0.13577399 0.3531618,0.55334958 0.8085938,0.86132808 0.4554319,0.3079786 1.1365206,0.484276 1.5820316,0.6386719 0.44551,0.1543959 0.638338,0.2732491 0.732422,0.4570313 0.09408,0.1837812 0.09734,0.4919493 0.05859,0.6503906 -0.0097,0.03961 -0.01972,0.059403 -0.02539,0.066406 -0.0057,0.007 -0.0062,0.010754 -0.03711,0.017578 -0.06179,0.013647 -0.231566,0.00636 -0.529297,-0.056641 C 10.363524,3.1435293 9.2370058,2.8197301 8.2714844,2.8046875 7.3059635,2.7896449 6.5499411,3.0788748 5.7128906,3.0605469 4.8758402,3.042219 3.8966326,2.7131538 3.0917969,2.7285156 2.2869611,2.7438775 1.6943539,3.1113822 1.4726562,3.5488281 1.3618071,3.7675517 1.354903,3.9992246 1.4101562,4.2109375 1.4654095,4.4226504 1.5793831,4.6170594 1.7089844,4.7929687 1.9681869,5.1447874 2.314061,5.4346809 2.8242188,5.6855469 2.9100678,5.7277625 3.0406822,5.7585245 3.1347656,5.7988281 2.8171465,5.731666 2.419961,5.7288338 2.1640625,5.6113281 1.4894676,5.3015619 1.0490211,4.7747627 0.81054688,4.125 0.57207242,3.4752367 0.54267739,2.6936935 0.67382812,2.1679688 0.80497902,1.6422433 1.0761234,1.3677015 1.4707031,1.2207031 1.8652835,1.0737045 2.4012213,1.0706132 3.4804688,1.0742187 4.5597162,1.0778243 6.1705926,1.084585 7.78125,1.0917969 H 7.9140625 V 0.95898438 c 0,-0.0865428 2.688e-4,-0.16569215 0.011719,-0.22656251 0.01145,-0.0608704 0.029888,-0.0992902 0.0625,-0.12890625 z"
       id="path2" /><ellipse
       style="fill:#000000;fill-opacity:1;stroke-width:1;stroke-linejoin:round;stroke-dasharray:1, 1;stroke-opacity:0.444695;paint-order:fill markers stroke"
       id="path4"
       cx="8.2256355"
       cy="0.92047566"
       rx="0.19378433"
       ry="0.18613496" /><path
       style="color:#000000;fill:#000000;-inkscape-stroke:none"
       d="M 8.5390625,2.0917969 8.4335938,2.3339844 c 0.2651783,0.1155906 0.5435692,0.2361813 1.0878906,0.375 0.5443216,0.1388187 1.3529796,0.296688 2.1621096,0.4550781 L 11.734375,2.90625 C 10.925245,2.7478599 10.11593,2.5882893 9.5859375,2.453125 9.0559449,2.3179606 8.8042408,2.2073875 8.5390625,2.0917969 Z"
       id="path5" /><path
       style="color:#000000;fill:#000000;-inkscape-stroke:none"
       d="m 11.042969,2.6132813 -0.0332,0.2949218 0.263672,0.03125 0.0332,-0.296875 z"
       id="path6" /><path
       style="color:#000000;fill:#000000;-inkscape-stroke:none"
       d="m 10.25,2.7890625 -0.05078,0.1699219 0.253906,0.076172 0.04883,-0.1699219 z"
       id="path7" /><path
       style="color:#000000;fill:#000000;-inkscape-stroke:none"
       d="m 9.6269531,2.3222656 -0.041016,0.28125 0.2617188,0.037109 0.041016,-0.2792969 z"
       id="path8" /><path
       style="color:#000000;fill:#000000;-inkscape-stroke:none"
       d="M 8.8339844,2.3496094 8.7128906,2.625 8.9550781,2.7304688 9.0761719,2.4570313 Z"
       id="path9" /><path
       style="color:#000000;fill:#000000;-inkscape-stroke:none"
       d="m 2.6386719,2.8476563 c -0.043271,0.077598 -0.087864,0.1595876 -0.1210938,0.2460937 -0.03323,0.086506 -0.058396,0.1822869 -0.029297,0.2851563 0.029099,0.1028685 0.1041674,0.1772774 0.1875,0.234375 0.083333,0.057097 0.181768,0.1023537 0.2910156,0.1464843 0.218495,0.088261 0.4896135,0.1740289 0.734375,0.1953125 C 3.9459334,3.9763617 4.1443434,3.951106 4.2734375,3.8242188 4.3379846,3.7607751 4.3619448,3.6609073 4.34375,3.5839844 4.3255552,3.5070615 4.2805389,3.4495954 4.2246094,3.40625 4.1127496,3.3195587 3.9937448,3.3064539 3.8808594,3.2675781 3.7679739,3.2287023 3.6497083,3.153236 3.6308594,3.1230469 3.6120106,3.0928579 3.6194597,3.0271889 3.6484375,2.9160156 L 3.3925781,2.8476563 c -0.028978,0.1111732 -0.079136,0.2673713 0.013672,0.4160156 0.092808,0.1486441 0.2527467,0.2090491 0.3886719,0.2558594 0.1359252,0.04681 0.2351971,0.070608 0.2675781,0.095703 0.011979,0.00928 0.014326,0.015653 0.017578,0.021484 -0.017358,0.013229 -0.1622012,0.071493 -0.3554687,0.054687 C 3.527032,3.6742256 3.2666605,3.5953538 3.0644531,3.5136719 2.9633495,3.4728309 2.8795631,3.432452 2.8242188,3.3945313 2.7688744,3.3566105 2.7492986,3.3248744 2.7441406,3.3066406 2.7389829,3.2884077 2.7405602,3.2476653 2.7636719,3.1875 2.7867836,3.1273347 2.8278223,3.0541609 2.8710938,2.9765625 Z"
       id="path10" /><path
       style="color:#000000;fill:#000000;-inkscape-stroke:none"
       d="m 3.4511719,2.8046875 c -0.067111,0.094984 -0.1683908,0.2109996 -0.140625,0.3789063 0.027766,0.1679051 0.169048,0.2649473 0.328125,0.3300781 0.079538,0.032565 0.1607106,0.053239 0.2285156,0.074219 0.067805,0.020979 0.1214997,0.044625 0.1367187,0.056641 0.015219,0.012016 0.011724,0.016886 0.011719,0.019531 -5.4e-6,0.00265 -9.05e-5,0.00808 -0.013672,0.019531 -0.027163,0.022911 -0.1556535,0.062159 -0.3652343,0.052734 C 3.4271379,3.726903 3.1414879,3.679984 2.9589844,3.6191406 2.8677326,3.5887189 2.8042912,3.5558872 2.7695313,3.5253906 2.7347713,3.494894 2.7240951,3.4743406 2.7207031,3.4355469 2.7139196,3.3579633 2.7860531,3.1628612 2.875,2.9667969 L 2.6347656,2.8574219 C 2.5458188,3.0534862 2.438896,3.2496184 2.4570313,3.4570313 2.4660987,3.5607357 2.5200325,3.6562668 2.5957031,3.7226563 2.6713737,3.7890457 2.7647061,3.8343237 2.875,3.8710938 3.0955877,3.9446337 3.3897675,3.9894212 3.625,4 3.8602325,4.0105788 4.0419005,3.9979973 4.1738281,3.8867188 4.2397919,3.8310795 4.2810755,3.7495003 4.28125,3.6640625 4.2814245,3.5786247 4.2385806,3.4932504 4.1679687,3.4375 4.0973568,3.3817496 4.0205385,3.359213 3.9453125,3.3359375 3.8700865,3.312662 3.7947268,3.2926417 3.7382813,3.2695313 3.6253901,3.2233103 3.5722377,3.1522674 3.5703125,3.140625 c -0.00192,-0.011641 0.030545,-0.08861 0.097656,-0.1835937 z"
       id="path10-0"
       transform="rotate(-8.6955779,6.5115005,-22.6508)" /><path
       style="color:#000000;fill:#000000;-inkscape-stroke:none"
       d="M 3.3496094,0.93554688 C 3.3451954,1.0467944 3.3478433,1.1076202 3.2636719,1.2148437 3.1795012,1.3220663 2.9771676,1.4822847 2.7714844,1.6386719 L 2.9316406,1.8496094 C 3.1373238,1.6932222 3.3447765,1.5393206 3.4707031,1.3789062 3.596629,1.2184929 3.6088673,1.0585131 3.6132813,0.94726563 Z"
       id="path11" /><path
       style="color:#000000;fill:#000000;-inkscape-stroke:none"
       d="M 4.3222656,0.94335938 C 4.321709,1.0823016 4.3141762,1.1941877 4.2714844,1.2636719 4.2287936,1.3331543 4.1105981,1.4147538 3.9746094,1.4980469 L 4.1132812,1.7246094 C 4.24927,1.6413163 4.402239,1.5550994 4.4960937,1.4023437 4.5899474,1.2495898 4.5853808,1.0842547 4.5859375,0.9453125 Z"
       id="path12" /><path
       style="color:#000000;fill:#000000;-inkscape-stroke:none"
       d="M 5.4433594,0.94921875 C 5.442946,1.0458089 5.4444713,1.0930926 5.3945312,1.1542969 5.3445918,1.2155004 5.1965129,1.3131017 5.1171875,1.359375 c -0.039663,0.023137 -0.062833,0.035382 -0.070312,0.039063 -0.00748,0.00368 0.015969,-0.00476 0.011719,-0.00391 l 0.050781,0.2597657 c 0.00425,-8.501e-4 0.035394,-0.010038 0.054687,-0.019531 C 5.1833558,1.625272 5.2080679,1.6123511 5.25,1.5878906 5.333864,1.5389698 5.4944483,1.4491932 5.5996094,1.3203125 5.7047699,1.1914325 5.7066179,1.0458089 5.7070312,0.94921875 Z"
       id="path13" /><path
       style="color:#000000;fill:#000000;-inkscape-stroke:none"
       d="M 6.4726562,0.953125 C 6.4721447,1.06904 6.4705828,1.1356526 6.4199219,1.1914062 6.3692623,1.2471584 6.2075462,1.3279784 6.0351562,1.4023437 L 6.1386719,1.6464844 C 6.3110618,1.5721191 6.4929925,1.503671 6.6152344,1.3691406 6.7374749,1.2346117 6.7377697,1.0709931 6.7382812,0.95507813 Z"
       id="path14" /><path
       style="color:#000000;fill:#000000;-inkscape-stroke:none"
       d="M 2.2070313,0.8984375 C 2.1127482,1.1149015 2.0212668,1.3198368 1.8984375,1.4648437 1.7756074,1.6098515 1.6010472,1.7203469 1.4140625,1.8359375 L 1.5527344,2.0605469 C 1.7397191,1.9449563 1.9411679,1.8237678 2.0996094,1.6367187 2.2580515,1.4496689 2.3549357,1.2203703 2.4492188,1.0039062 Z"
       id="path15" /></g></svg>
